<?xml version="1.0" encoding="UTF-8" standalone="no"?>
<!-- Created with Inkscape (http://www.inkscape.org/) -->

<svg
   xmlns:dc="http://purl.org/dc/elements/1.1/"
   xmlns:cc="http://creativecommons.org/ns#"
   xmlns:rdf="http://www.w3.org/1999/02/22-rdf-syntax-ns#"
   xmlns:svg="http://www.w3.org/2000/svg"
   xmlns="http://www.w3.org/2000/svg"
   xmlns:sodipodi="http://sodipodi.sourceforge.net/DTD/sodipodi-0.dtd"
   xmlns:inkscape="http://www.inkscape.org/namespaces/inkscape"
   width="210mm"
   height="297mm"
   viewBox="0 0 210 297"
   version="1.1"
   id="svg8"
   inkscape:version="0.92.2 5c3e80d, 2017-08-06"
   sodipodi:docname="layout1.svg">
  <defs
     id="defs2" />
  <sodipodi:namedview
     id="base"
     pagecolor="#ffffff"
     bordercolor="#666666"
     borderopacity="1.0"
     inkscape:pageopacity="0.0"
     inkscape:pageshadow="2"
     inkscape:zoom="0.35"
     inkscape:cx="903.44207"
     inkscape:cy="1482.1822"
     inkscape:document-units="mm"
     inkscape:current-layer="layer1"
     showgrid="false"
     inkscape:window-width="1440"
     inkscape:window-height="855"
     inkscape:window-x="0"
     inkscape:window-y="1"
     inkscape:window-maximized="1" />
  <metadata
     id="metadata5">
    <rdf:RDF>
      <cc:Work
         rdf:about="">
        <dc:format>image/svg+xml</dc:format>
        <dc:type
           rdf:resource="http://purl.org/dc/dcmitype/StillImage" />
        <dc:title />
      </cc:Work>
    </rdf:RDF>
  </metadata>
  <g
     inkscape:label="Layer 1"
     inkscape:groupmode="layer"
     id="layer1"
     style="display:inline">
    <rect
       id="rect10"
       width="793.75"
       height="461.99551"
       x="-217.71429"
       y="-132.95831"
       style="fill:#e6e6e6;stroke:#f0001a;stroke-width:5.32461929;stroke-miterlimit:4;stroke-dasharray:none;stroke-opacity:1"
       transform="scale(1,-1)" />
    <rect
       style="fill:#e6e6e6;stroke:#f0001a;stroke-width:1.50035846;stroke-miterlimit:4;stroke-dasharray:none;stroke-opacity:1"
       id="rect817"
       width="773.85815"
       height="39.167629"
       x="-207.43732"
       y="-317.23492" />
    <rect
       style="fill:#e6e6e6;stroke:#f0001a;stroke-width:1.67239809;stroke-miterlimit:4;stroke-dasharray:none;stroke-opacity:1"
       id="rect819"
       width="774.06769"
       height="41.739281"
       x="-207.5421"
       y="-278.17206" />
    <rect
       style="fill:#e6e6e6;stroke:#f0001a;stroke-width:1.94790399;stroke-miterlimit:4;stroke-dasharray:none;stroke-opacity:1"
       id="rect821"
       width="772.97327"
       height="52.734665"
       x="-207.53149"
       y="70.385651" />
    <rect
       style="fill:#e6e6e6;stroke:#f0001a;stroke-width:5.06500006;stroke-miterlimit:4;stroke-dasharray:none;stroke-opacity:1"
       id="rect823"
       width="772.98389"
       height="306.81842"
       x="-207.5421"
       y="-236.43277" />
    <text
       xml:space="preserve"
       style="font-style:normal;font-weight:normal;font-size:40.23597336px;line-height:1.25;font-family:sans-serif;letter-spacing:0px;word-spacing:0px;fill:#000000;fill-opacity:1;stroke:none;stroke-width:1.00589943"
       x="37.251575"
       y="-361.82233"
       id="text827"
       transform="scale(1.2545354,0.79710785)"><tspan
         sodipodi:role="line"
         id="tspan825"
         x="37.251575"
         y="-361.82233"
         style="stroke-width:1.00589943">Header</tspan></text>
    <text
       xml:space="preserve"
       style="font-style:normal;font-weight:normal;font-size:52.25772095px;line-height:1.25;font-family:sans-serif;letter-spacing:0px;word-spacing:0px;fill:#000000;fill-opacity:1;stroke:none;stroke-width:1.30644286"
       x="77.348503"
       y="-305.50562"
       id="text831"
       transform="scale(1.2407815,0.80594368)"><tspan
         sodipodi:role="line"
         id="tspan829"
         x="77.348503"
         y="-305.50562"
         style="stroke-width:1.30644286">Nav</tspan></text>
    <text
       xml:space="preserve"
       style="font-style:normal;font-weight:normal;font-size:40.06136703px;line-height:1.25;font-family:sans-serif;letter-spacing:0px;word-spacing:0px;fill:#000000;fill-opacity:1;stroke:none;stroke-width:1.0015341"
       x="550.60535"
       y="-87.366905"
       id="text835"
       transform="scale(0.95748555,1.0444022)"><tspan
         sodipodi:role="line"
         id="tspan833"
         x="550.60535"
         y="-87.366905"
         style="stroke-width:1.0015341">Main</tspan></text>
    <text
       xml:space="preserve"
       style="font-style:normal;font-weight:normal;font-size:44.23429871px;line-height:1.25;font-family:sans-serif;letter-spacing:0px;word-spacing:0px;fill:#000000;fill-opacity:1;stroke:none;stroke-width:1.10585737"
       x="65.784538"
       y="120.40784"
       id="text839"
       transform="scale(1.103585,0.9061377)"><tspan
         sodipodi:role="line"
         id="tspan837"
         x="65.784538"
         y="120.40784"
         style="stroke-width:1.10585737">Footer</tspan></text>
    <path
       style="fill:#ffd5d5;stroke:#f0001a;stroke-width:5.06500006;stroke-miterlimit:4;stroke-dasharray:none;stroke-opacity:1"
       id="path847"
       d="m 597.92353,-332.22234 c 3.18397,0.0671 6.36895,0.0546 9.55347,0.0616 3.12346,-0.15163 6.20731,0.11303 9.26642,0.72424 1.90363,0.43609 3.58045,1.34097 5.1633,2.45558 1.21179,0.9308 2.06274,2.07806 2.7592,3.42262 0.99126,1.5758 1.28643,3.35118 1.50538,5.16474 0.2024,2.43639 0.17928,4.88435 0.18073,7.32711 -0.007,3.2394 -0.0859,6.47904 0.0228,9.71709 0.1823,4.27363 0.56967,8.53196 0.87175,12.79744 0.36248,5.59547 0.77888,11.18275 0.97813,16.78753 0.18331,7.19256 0.16558,14.38848 0.19082,21.58285 0.0272,6.3614 0.0478,12.72274 0.0727,19.08415 0.091,4.2966 -0.0814,8.60459 0.16552,12.89641 0.33036,3.24828 0.51136,6.50427 0.56335,9.76808 -0.0114,7.18324 -0.0774,14.36631 -0.11091,21.54952 -0.0366,9.45358 -0.0311,18.90729 -0.003,28.3609 -0.10136,7.90822 0.21172,15.80993 0.53443,23.70944 0.11335,5.9244 0.50004,11.83649 0.79476,17.7532 0.21873,5.30506 0.28305,10.6137 0.34795,15.92238 0.0138,3.697812 0.0673,7.395348 0.0897,11.093064 0.0556,3.391524 -0.003,6.764038 -0.356,10.137764 -1.31466,8.789278 -2.92322,17.53295 -4.27958,26.317056 -2.04081,12.663657 -3.03983,25.443569 -3.62027,38.246274 -0.4242,11.3855703 -0.43534,22.7817085 -0.38124,34.173464 0.1728,7.933888 0.73721,15.853 1.17885,23.775429 0.33171,5.920171 0.46263,11.850865 0.53735,17.779394 0.0209,4.224012 0.0671,8.447783 0.10625,12.671616 0.0706,2.677154 2.2e-4,5.354245 -0.007,8.031559 -0.0478,3.905588 -0.0403,7.811394 -0.0251,11.717136 0.0282,2.749291 0.0325,5.499052 0.0683,8.248269 0.0122,1.754655 0.0183,3.509335 0.0177,5.264035 0.0344,1.29228 -0.007,2.58543 0.0243,3.87781 0.0623,1.09385 -0.0266,2.15454 -0.28429,3.2181 -0.16619,0.96545 -0.39262,1.88545 -0.71901,2.80509 -0.29612,0.96975 -0.42696,1.96617 -0.76388,2.92445 -0.23397,1.15575 -0.78719,2.18696 -1.16573,3.29741 -0.41637,1.33608 -0.86256,2.65986 -1.38136,3.95984 -0.51443,1.24119 -1.1611,2.44431 -1.87375,3.5848 -0.53345,0.99709 -1.13009,1.94425 -1.77403,2.87185 -3.08412,3.58849 -7.29541,4.58188 -11.60489,7.37328 -2.98098,1.93089 6.1581,-3.54068 9.23713,-5.31101 -27.2401,15.69866 -0.50625,0.40346 -0.80399,0.51681 -8.22727,3.13222 -6.69848,5.40199 -11.54462,5.8476 -0.9603,0.0266 -1.92148,0.0284 -2.88205,0.013 -0.88829,-5.3e-4 -1.77657,-0.006 -2.66491,-0.002 -0.62076,0.006 -1.24153,-7.9e-4 -1.8623,0.005 -0.53525,1.7e-4 -1.0705,-0.002 -1.60573,0.002 -0.50969,0.003 -1.01954,-0.008 -1.52923,-0.002 -0.55301,0.001 -1.10578,-0.008 -1.65886,0.002 -0.52544,-0.003 -1.05095,-0.008 -1.57636,0.002 -0.6467,-0.005 -1.29368,-0.0159 -1.94043,-0.007 -0.28781,0.007 -0.57523,-0.002 -0.8631,0.002 0,0 9.13334,-6.63576 9.13334,-6.63576 v 0 c 0.2857,0.004 0.571,-0.005 0.85661,0.002 0.65297,0.009 1.3062,-0.002 1.95914,-0.007 0.52385,0.01 1.04783,0.004 1.5717,0.002 0.55134,0.01 1.10242,5.3e-4 1.65367,0.002 0.51113,0.007 1.02241,-0.005 1.5335,-0.002 0.53327,0.005 1.06659,0.002 1.59989,0.002 0.61597,0.006 1.232,-0.001 1.84795,0.009 0.88022,0.009 1.76041,0.011 2.6406,0.0168 0.9349,-0.013 1.87732,0.007 2.80215,-0.15209 0.40542,-0.0796 0.44672,-0.0734 0.84928,-0.21363 0.1378,-0.048 0.53282,-0.23525 0.40685,-0.16156 -3.06734,1.79447 -12.29701,7.13026 -9.2352,5.32635 0.27284,-0.16075 25.03564,-14.48222 0.84807,-0.42818 3.33232,-1.95382 6.63686,-3.95588 9.99701,-5.86146 3.06872,-1.74031 -6.06787,3.60088 -9.12264,5.36559 -0.30962,0.17887 0.62555,-0.35573 0.89664,-0.5889 0.13716,-0.11797 0.2118,-0.29337 0.31769,-0.44005 0.12464,-0.1028 0.24926,-0.2056 0.37388,-0.3084 0.82629,-0.72688 1.39068,-1.73683 1.87513,-2.71424 0.69831,-1.1141 1.37803,-2.23682 1.98496,-3.40548 0.49212,-1.28633 1.00467,-2.55986 1.38808,-3.87928 0.15925,-0.55194 0.28681,-1.23388 0.51062,-1.75901 0.005,-0.0127 0.52485,-0.79398 0.54943,-0.867 0.0685,-0.2034 0.0703,-0.42346 0.10539,-0.63519 0.11242,-0.50448 0.38041,-0.93057 0.4904,-1.42399 0.0425,-0.1907 0.0351,-0.38918 0.0527,-0.58377 0.0238,-0.17571 0.0315,-0.3544 0.0717,-0.52712 0.0318,-0.1369 0.0953,-0.26442 0.14303,-0.39663 0.051,-0.21626 0.16677,-0.77903 0.27787,-0.99878 0.0487,-0.0963 0.17126,-0.1478 0.20544,-0.25013 0.15389,-0.46059 0.0708,-1.04856 0.25961,-1.50794 0.23823,-0.9985 0.53488,-1.93271 0.4004,-2.97962 0.0306,-1.30068 -0.01,-2.60207 0.0243,-3.90263 0,-1.76073 0.006,-3.52143 0.0177,-5.28211 0.0355,-2.7724 0.04,-5.545317 0.0682,-8.31778 0.0151,-3.897519 0.0228,-7.795096 -0.0238,-11.692472 -0.006,-2.677258 -0.0732,-5.354367 0.005,-8.031339 0.0465,-4.249198 0.0989,-8.498637 0.0669,-12.748213 -0.0275,-5.939197 -0.085,-11.878754 -0.37127,-17.812279 -0.3829,-7.978203 -0.88868,-15.954941 -0.97562,-23.943285 0.0943,-11.449828 0.17036,-22.9017791 0.6187,-34.344734 0.59658,-12.802028 1.53567,-25.586251 3.43493,-38.270646 1.2451,-8.665561 2.71428,-17.299011 3.75137,-25.993184 0.28286,-3.323373 0.32157,-6.64077 0.26355,-9.975213 0.0283,-3.721833 0.0873,-7.443525 0.0689,-11.165636 0.003,-5.306759 -0.0427,-10.615109 -0.26141,-15.917889 -0.25037,-5.93972 -0.67754,-11.87142 -0.69699,-17.81926 -0.1996,-7.94306 -0.53155,-15.88379 -0.37306,-23.83146 0.0306,-9.45336 0.0418,-18.90686 0.003,-28.3602 -0.0392,-7.10468 -0.0676,-14.21073 -0.29113,-21.31258 -0.12067,-3.244 -0.2936,-6.48373 -0.59719,-9.71651 -0.22058,-4.34292 0.0587,-8.69756 -0.008,-13.04426 0.0311,-6.3855 0.0629,-12.77096 0.0752,-19.15652 -0.004,-7.16579 -0.028,-14.33323 -0.2758,-21.49553 -0.2304,-5.57363 -0.64989,-11.13089 -1.07484,-16.69214 -0.34393,-4.25995 -0.74356,-8.51392 -0.96692,-12.78281 -0.19862,-3.23514 -0.0934,-6.47608 -0.13586,-9.71614 -0.006,-2.39813 0.004,-4.80025 -0.17394,-7.1932 -0.17251,-1.6851 -0.41482,-3.32689 -1.35869,-4.77877 -0.6078,-1.17893 -1.37028,-2.17215 -2.4566,-2.95838 -1.49548,-0.98806 -3.06843,-1.78036 -4.84714,-2.12331 -2.98641,-0.57714 -6.00866,-0.69305 -9.04706,-0.61696 -3.24099,0.007 -6.4824,-0.005 -9.72291,0.0616 0,0 9.06695,-6.58754 9.06695,-6.58754 z"
       inkscape:connector-curvature="0" />
    <text
       xml:space="preserve"
       style="font-style:normal;font-weight:normal;font-size:34.958004px;line-height:1.25;font-family:sans-serif;letter-spacing:0px;word-spacing:0px;fill:#000000;fill-opacity:1;stroke:none;stroke-width:0.87394994"
       x="943.42926"
       y="-73.774445"
       id="text851"
       transform="scale(0.66541873,1.5028131)"><tspan
         sodipodi:role="line"
         id="tspan849"
         x="943.42926"
         y="-73.774445"
         style="stroke-width:0.87394994">Wrapper</tspan></text>
    <text
       xml:space="preserve"
       style="font-style:normal;font-weight:normal;font-size:69.22206879px;line-height:1.25;font-family:sans-serif;letter-spacing:0px;word-spacing:0px;fill:#000000;fill-opacity:1;stroke:none;stroke-width:1.73055172"
       x="111.93498"
       y="-38.851791"
       id="text25"
       transform="scale(0.77168745,1.2958614)"><tspan
         sodipodi:role="line"
         id="tspan23"
         x="111.93498"
         y="-38.851791"
         style="stroke-width:1.73055172">Section</tspan></text>
  </g>
</svg>
